<?xml version="1.0" encoding="utf-8"?>
<svg xmlns="http://www.w3.org/2000/svg" viewBox="-208.793 132.316 943.078 215.338" xmlns:bx="https://boxy-svg.com">
  <g>
    <g transform="matrix(1, 0, 0, 1, -246.190994, -262.209015)">
      <path d="M870.708 449.805Q872.205 449.752 873.702 449.772Q875.2 449.792 876.695 449.886Q878.189 449.98 879.678 450.147Q881.166 450.313 882.644 450.553Q884.123 450.793 885.588 451.104Q887.053 451.416 888.5 451.799Q889.948 452.182 891.376 452.636Q892.803 453.09 894.206 453.613Q895.61 454.136 896.986 454.727Q898.362 455.318 899.707 455.976Q901.053 456.634 902.364 457.357Q903.676 458.08 904.95 458.867Q906.225 459.653 907.459 460.501Q908.694 461.349 909.885 462.257Q911.077 463.164 912.222 464.129Q913.368 465.094 914.465 466.113Q915.561 467.133 916.607 468.206Q917.653 469.278 918.644 470.4Q919.636 471.522 920.572 472.692Q921.507 473.861 922.384 475.075Q923.261 476.289 924.078 477.545Q924.894 478.8 925.648 480.094Q926.403 481.388 927.092 482.718Q927.782 484.047 928.406 485.409Q929.029 486.771 929.586 488.161Q930.142 489.552 930.629 490.968Q931.117 492.384 931.534 493.822Q931.952 495.261 932.298 496.718Q932.644 498.175 932.919 499.647Q933.194 501.119 933.396 502.603Q933.598 504.087 933.727 505.579Q933.856 507.071 933.912 508.568Q933.968 510.065 933.95 511.562Q933.933 513.06 933.842 514.555Q933.751 516.05 933.587 517.538Q933.423 519.027 933.186 520.506Q932.949 521.985 932.64 523.45Q932.331 524.916 931.95 526.364Q931.57 527.813 931.119 529.241Q930.668 530.669 930.147 532.073Q929.627 533.478 929.038 534.855Q928.449 536.232 927.794 537.578Q927.138 538.925 926.418 540.238Q925.697 541.551 924.913 542.827Q924.129 544.103 923.283 545.339Q922.437 546.575 921.532 547.768Q920.627 548.961 919.664 550.108Q918.701 551.256 917.683 552.354Q916.666 553.453 915.595 554.5Q914.525 555.548 913.404 556.542Q912.284 557.536 911.116 558.473Q909.948 559.411 908.736 560.29Q907.523 561.17 906.269 561.988Q905.015 562.807 903.723 563.564Q902.43 564.32 901.102 565.012Q899.774 565.704 898.413 566.33Q897.053 566.957 895.663 567.515Q894.274 568.074 892.858 568.564Q891.443 569.054 890.006 569.474Q888.568 569.894 887.111 570.243Q885.655 570.593 884.183 570.87Q882.712 571.147 881.228 571.352Q879.744 571.557 878.252 571.689Q876.761 571.82 875.264 571.879Q873.764 571.938 872.263 571.923Q870.762 571.908 869.263 571.819Q867.765 571.73 866.272 571.568Q864.78 571.406 863.297 571.17Q861.815 570.935 860.346 570.627Q858.876 570.319 857.424 569.939Q855.972 569.559 854.54 569.109Q853.108 568.658 851.7 568.138Q850.292 567.617 848.911 567.028Q847.53 566.439 846.18 565.783Q844.83 565.127 843.513 564.405Q842.197 563.684 840.918 562.898Q839.638 562.113 838.399 561.266Q837.16 560.418 835.964 559.511Q834.768 558.604 833.618 557.639Q832.468 556.674 831.367 555.654Q830.266 554.634 829.216 553.561Q828.166 552.488 827.17 551.365Q826.174 550.242 825.235 549.071Q824.295 547.9 823.415 546.684Q822.534 545.469 821.714 544.211Q820.894 542.954 820.136 541.658Q819.379 540.362 818.687 539.03Q817.994 537.698 817.367 536.334Q816.741 534.97 816.182 533.576Q815.624 532.183 815.134 530.764Q814.645 529.345 814.225 527.903Q813.806 526.462 813.458 525.001Q813.11 523.541 812.835 522.066Q812.559 520.59 812.356 519.103Q812.153 517.615 812.023 516.12Q811.894 514.624 811.838 513.124Q811.782 511.624 811.8 510.123Q811.818 508.622 811.909 507.123Q812.001 505.625 812.166 504.133Q812.331 502.641 812.569 501.159Q812.807 499.677 813.117 498.208Q813.428 496.739 813.81 495.288Q814.193 493.836 814.646 492.405Q815.099 490.974 815.622 489.567Q816.145 488.16 816.737 486.78Q817.328 485.4 817.987 484.051Q818.645 482.702 819.369 481.387Q820.093 480.072 820.881 478.794Q821.669 477.516 822.518 476.279Q823.368 475.041 824.277 473.847Q825.186 472.652 826.153 471.504Q827.12 470.356 828.142 469.257Q829.165 468.157 830.24 467.109Q831.314 466.061 832.439 465.068Q833.565 464.074 834.737 463.137Q835.91 462.199 837.127 461.321Q838.344 460.442 839.603 459.624Q840.862 458.807 842.159 458.052Q843.457 457.297 844.79 456.607Q846.123 455.916 847.488 455.292Q848.854 454.668 850.248 454.112Q851.642 453.556 853.062 453.069Q854.482 452.582 855.924 452.166Q857.367 451.749 858.828 451.404Q860.289 451.059 861.765 450.786Q863.241 450.513 864.728 450.312Q866.216 450.112 867.712 449.985Q869.208 449.858 870.708 449.805ZM820.986 510.478C838.676 513.525 848.156 518.287 858.854 533.304C864.754 541.585 868.844 551.046 872.973 560.294L873.986 560.204C877.03 556.507 878.474 550.344 880.647 545.946C889.598 527.824 903.706 514.042 924.195 510.972C907.77 507.7 896.706 501.192 887.2 487.102C884.391 482.939 881.934 478.416 879.825 473.862C877.892 469.687 876.473 463.773 873.554 460.272C865.587 477.638 856.936 499.616 837.57 506.789C832.243 508.762 826.569 509.579 820.986 510.478Z"/>
      <path d="M223.102 455.261L258.382 455.368C276.448 492.156 295.242 528.656 312.713 565.726C295.421 566.197 278.051 565.874 260.75 565.88C230.869 565.892 200.715 566.774 170.862 565.63C174.82 555.549 179.987 545.629 184.575 535.801C197.167 508.835 210.624 482.269 223.102 455.261ZM241.533 564.315L252.44 543.758C258.878 531.577 265.12 518.413 273.064 507.177L207.475 507.077C218.895 526.03 231.007 544.862 241.533 564.315Z"/>
      <path d="M88.002 455.834C98.5461 455.563 109.153 455.776 119.704 455.785C129.668 455.793 140.064 455.268 149.919 456.892C155.214 457.764 160.269 459.39 164.909 462.117C173.057 466.907 178.579 474.3 180.907 483.456C183.691 494.409 182.158 507.767 176.252 517.477C170.326 527.219 161.668 531.711 150.878 534.326C138.732 536.389 125.807 535.458 113.511 535.496L113.508 565.996L87.7003 565.954C88.5252 529.299 87.8899 492.506 88.002 455.834ZM113.481 476.378L113.478 514.485C123.09 514.581 134.247 515.734 143.622 513.815C148.977 511.826 153.059 509.05 155.518 503.655C157.813 498.621 158.005 492.287 155.885 487.161C153.993 482.586 150.243 479.308 145.628 477.619C140.056 475.58 133.461 476.139 127.613 476.241L113.481 476.378Z"/>
      <path d="M674.827 455.422L700.505 455.455L700.678 564.765L696.054 564.9L677.767 564.844Q651.249 530.964 626.428 495.822C626.176 519.156 627.176 542.495 626.802 565.848Q613.886 565.906 600.971 565.742Q600.484 510.683 600.901 455.623L625.932 455.527Q649.95 488.555 674.839 520.932C675.439 499.15 674.758 477.221 674.827 455.422Z"/>
      <path d="M763.016 455.25Q785.786 455.111 808.555 455.225L808.488 477.347Q791.276 476.952 774.061 477.185L773.953 564.807C769.151 565.038 764.292 564.908 759.482 564.924L748.167 564.848L748.147 476.957C736.846 476.844 725.53 476.974 714.227 476.985Q714.384 466.23 714.655 455.478C730.768 455.236 746.9 455.321 763.016 455.25Z"/>
      <path d="M345.139 455.75C346.602 455.684 347.796 455.594 349.203 456.109C350.393 463.641 349.454 474.964 349.468 482.878L349.592 544.781Q375.021 544.5 400.449 544.839L400.486 565.883L379.75 565.94Q351.621 566.057 323.492 565.763L323.538 455.811L345.139 455.75Z"/>
      <path d="M412.387 455.507L436.762 455.507C437.502 485.224 436.85 515.11 436.626 544.843L487.129 544.912L487.184 565.693C462.378 566.716 437.216 565.909 412.375 565.86Q412.092 510.683 412.387 455.507Z"/>
    </g>
    <text style="fill: rgb(30, 30, 30); font-family: &quot;Abyssinica SIL&quot;; font-size: 28px; font-weight: 700; white-space: pre;" transform="matrix(6.89953, 0, 0, 6.94768, -2130.820068, -1446.469971)" x="341.794" y="254.527">∑</text>
  </g>
  <defs>
    <style bx:fonts="Abyssinica SIL">@import url(https://fonts.googleapis.com/css2?family=Abyssinica+SIL%3Aital%2Cwght%400%2C400&amp;display=swap);</style>
    <bx:export>
      <bx:file format="svg"/>
    </bx:export>
  </defs>
</svg>